<?xml version="1.0" encoding="utf-8"?>
<!-- Generator: Adobe Illustrator 26.0.2, SVG Export Plug-In . SVG Version: 6.00 Build 0)  -->
<svg version="1.1" id="Слой_1" xmlns="http://www.w3.org/2000/svg" xmlns:xlink="http://www.w3.org/1999/xlink" x="0px" y="0px"
	 viewBox="0 0 64 64" style="enable-background:new 0 0 64 64;" xml:space="preserve">
<style type="text/css">
	.st0{fill-rule:evenodd;clip-rule:evenodd;fill:#0C4BA0;}
	.st1{fill-rule:evenodd;clip-rule:evenodd;fill:#FFFFFF;}
</style>
<rect x="11" y="11" class="st0" width="41.9" height="41.9"/>
<path class="st1" d="M10,0h44c5.5,0,10,4.5,10,10v44c0,5.5-4.5,10-10,10H10C4.5,64,0,59.5,0,54V10C0,4.5,4.5,0,10,0z M33.4,24
	c-2.9,1.2-8.6,3.7-17.2,7.4C14.8,32,14.1,32.5,14,33c-0.1,0.9,1,1.2,2.5,1.7c0.2,0.1,0.4,0.1,0.6,0.2c1.5,0.5,3.5,1.1,4.6,1.1
	c1,0,2-0.4,3.2-1.2c8-5.4,12.2-8.2,12.4-8.2c0.2,0,0.4-0.1,0.6,0.1c0.2,0.2,0.2,0.4,0.1,0.5c-0.1,0.5-4.5,4.6-6.8,6.7
	c-0.7,0.7-1.2,1.1-1.3,1.2c-0.2,0.2-0.5,0.5-0.7,0.7c-1.4,1.3-2.4,2.4,0.1,4c1.2,0.8,2.2,1.4,3.1,2.1c1,0.7,2.1,1.4,3.4,2.3
	c0.3,0.2,0.7,0.5,1,0.7c1.2,0.9,2.3,1.7,3.7,1.5c0.8-0.1,1.6-0.8,2-3c1-5.2,2.9-16.5,3.3-21.2c0-0.4,0-0.9,0-1.2
	c0-0.2-0.1-0.6-0.4-0.8c-0.4-0.3-0.9-0.3-1.1-0.3C43.3,20,41.6,20.6,33.4,24z"/>
</svg>
