<?xml version="1.0" encoding="utf-8"?>
<!-- Generator: Adobe Illustrator 26.0.2, SVG Export Plug-In . SVG Version: 6.00 Build 0)  -->
<svg version="1.1" id="Слой_1" xmlns="http://www.w3.org/2000/svg" xmlns:xlink="http://www.w3.org/1999/xlink" x="0px" y="0px"
	 viewBox="0 0 64 64" style="enable-background:new 0 0 64 64;" xml:space="preserve">
<style type="text/css">
	.st0{fill-rule:evenodd;clip-rule:evenodd;fill:#0C4BA0;}
	.st1{fill-rule:evenodd;clip-rule:evenodd;fill:#FFFFFF;}
	.st2{fill:#FFFFFF;}
</style>
<rect x="11" y="11" class="st0" width="41.9" height="41.9"/>

<path class="st2" d="M33,39.1c-7.3,0-11.5-5-11.6-13.3h3.7c0.1,6.1,2.8,8.7,4.9,9.2v-9.2h3.4V31c2.1-0.2,4.3-2.6,5.1-5.3H42
	c-0.3,1.4-0.8,2.7-1.6,3.8c-0.8,1.1-1.8,2.1-3,2.8c1.3,0.7,2.5,1.6,3.5,2.8c0.9,1.2,1.6,2.5,2,3.9H39c-0.8-2.5-2.8-4.5-5.5-4.8v4.8
	H33z"/>
</svg>
